<?xml version="1.0" encoding="utf-8"?>
<!-- Generator: Adobe Illustrator 25.2.0, SVG Export Plug-In . SVG Version: 6.00 Build 0)  -->
<svg version="1.1" id="Layer_1" xmlns="http://www.w3.org/2000/svg" xmlns:xlink="http://www.w3.org/1999/xlink" x="0px" y="0px"
	 viewBox="0 0 29.5 32" style="enable-background:new 0 0 29.5 32;" xml:space="preserve">
<style type="text/css">
	.st0{fill:#5FCF80;}
</style>
<path class="st0" d="M26,5.9c-1.1-0.6-2.8,0.4-3.8,2.2l-1.9,3.2c-0.7,1.3-0.6,2.9,0.3,4.2l0.1,0.1c0.9,1.2,2,2.4,2.4,2.8
	c0.2,0.2,0.4,0.5,0.5,0.9c0.3,1.1-0.3,2.3-1.5,2.6c-1.1,0.3-2.3-0.3-2.6-1.5c-0.1-0.3-0.1-0.6-0.1-0.8c0.1-0.5-0.1-1.2-0.8-2
	c-0.7-0.7-2,0.7-2.5,2.1v0.1c-0.4,1.4-0.7,2.7-0.6,2.8c0,0.1,0.1,0.1,0.1,0.2c0.6,1.2,0.2,2.6-1,3.2s-2.6,0.2-3.2-1s-0.2-2.6,1-3.2
	c0.1,0,0.1-0.1,0.2-0.1s0.3-0.6,0.6-1.4c0.2-0.7,0.3-1,0.4-1.3c0.1-0.4,0.3-1.4,0.2-1.8c-0.1-0.5-0.6-0.5-1.1-0.2
	c-0.3,0.2-0.9,0.7-1.1,0.9c-0.5,0.4-0.9,1-1.1,1.5c-0.1,0.2-0.3,0.5-0.5,0.7c-0.9,0.7-2.2,0.6-3-0.3c-0.7-0.9-0.6-2.2,0.3-3
	c0.3-0.2,0.6-0.4,0.9-0.4c0.5-0.1,2.3-1.2,3.4-2c0.2-0.1,0.5-0.4,0.6-0.5c0.3-0.4,0-0.7-0.3-0.7c-0.9,0.1-1.9,0.2-2.1,0.5
	c-0.1,0.1-0.2,0.3-0.4,0.4c-0.8,0.6-2,0.4-2.6-0.4s-0.4-2,0.4-2.6c0.3-0.3,0.8-0.4,1.1-0.4c0.7,0,2.5,0.4,3.9,0.1l0.4-0.1
	c1.5-0.3,3.3-1.6,4-2.9c0,0,0.7-1.2,1.5-2.7C19,3.6,18.9,1.9,18,1.4l-1.7-1c-0.9-0.5-2.2-0.5-3.1,0L1.6,7C0.7,7.5,0,8.7,0,9.7v12.8
	c0,1,0.7,2.2,1.6,2.7l11.6,6.6c0.9,0.5,2.3,0.5,3.1,0l11.6-6.6c0.9-0.5,1.6-1.7,1.6-2.7V9.7c0-1-0.7-2.2-1.6-2.7
	C27.9,7,27.1,6.5,26,5.9z"/>
</svg>
